<svg xmlns="http://www.w3.org/2000/svg" width="24" height="48"><path d="M 4.679 31.684 C 4.929 30.597 5.058 29.465 5.448 28.436 C 8.431 20.569 10.61 12.397 14.184 4.757 C 14.551 3.972 14.907 3.159 15.4 2.453 C 16.794 0.461 19.212 -0.197 21.255 0.777 C 23.313 1.76 24.321 4.041 23.741 6.422 C 23.642 6.826 23.517 7.234 23.35 7.616 C 21.043 12.852 18.848 18.145 16.362 23.296 C 14.93 26.267 13.066 29.029 11.307 31.822 C 10.704 32.782 9.898 33.649 9.052 34.4 C 7.241 36.003 5.334 35.271 4.883 32.863 C 4.811 32.489 4.815 32.1 4.781 31.714 C 4.747 31.703 4.713 31.691 4.679 31.683 Z M 4.448 39.647 C 6.58 39.625 8.329 41.36 8.358 43.527 C 8.397 45.816 6.585 47.734 4.387 47.734 C 2.106 47.734 0.249 45.997 0.222 43.839 C 0.192 41.497 2.034 39.67 4.448 39.647 Z" fill="rgb(0,0,0)"></path></svg>