<svg xmlns="http://www.w3.org/2000/svg" width="33" height="72"><path d="M 18.931 54.707 C 20.743 52.056 22.447 49.428 24.304 46.908 C 24.97 46.006 25.925 45.255 26.885 44.646 C 28.222 43.802 29.692 43.798 31.044 44.7 C 32.445 45.63 33.003 47.025 32.675 48.629 C 32.454 49.691 32.009 50.739 31.504 51.71 C 30.201 54.23 28.717 56.657 27.483 59.207 C 26.777 60.664 26.195 62.249 25.935 63.833 C 25.553 66.144 26.229 68.235 28.208 69.721 C 29.124 70.409 28.913 70.892 28.021 71.369 C 25.857 72.529 22.565 72.027 20.767 70.068 C 17.931 66.982 17.432 63.238 17.99 59.26 C 18.049 58.826 18.151 58.397 18.23 57.974 C 13.822 56.755 11.657 54.342 11.51 49.784 C 11.436 47.4 12.088 44.992 12.441 42.594 C 12.509 42.126 12.71 41.673 12.852 41.2 C 12.661 41.112 12.553 41.029 12.431 41.014 C 3.491 39.762 -1.471 32.888 0.46 24.06 C 1.115 21.077 2.116 18.18 3.442 15.427 C 5.632 10.884 8.154 6.491 10.653 2.104 C 11.113 1.295 12.063 0.627 12.94 0.227 C 14.082 -0.289 15.222 0.14 16.1 1.046 C 17.069 2.045 17.236 3.288 16.751 4.508 C 16.134 6.067 15.33 7.559 14.591 9.07 C 12.646 13.048 10.574 16.977 8.791 21.023 C 7.89 23.065 7.268 25.293 6.93 27.502 C 6.273 31.811 10.016 35.891 14.405 35.847 C 14.865 35.842 15.516 35.462 15.747 35.067 C 18.103 30.953 21.228 27.438 24.358 23.924 C 25.822 22.276 27.713 21.944 29.237 22.988 C 30.794 24.055 31.191 26.039 30.049 27.96 C 28.756 30.129 27.321 32.216 25.95 34.336 C 22.903 39.04 20.092 43.856 18.637 49.326 C 18.142 51.222 18.108 53.064 18.931 54.707 Z" fill="rgb(0,0,0)"></path></svg>